<svg xmlns="http://www.w3.org/2000/svg" xmlns:xlink="http://www.w3.org/1999/xlink" viewBox="0 0 24 24" version="1.1" x="0px" y="0px"><title>sport_005-net-volleyball-ball-entertainment-exercise</title><desc>Created with Sketch.</desc><g stroke="none" stroke-width="1" fill="none" fill-rule="evenodd"><g transform="translate(-237.000000, -45.000000)" fill="#000000"><g transform="translate(238.000000, 46.000000)"><path d="M0,21.5 C0,21.7761424 0.223857625,22 0.5,22 C0.776142375,22 1,21.7761424 1,21.5 L1,0.5 C1,0.223857625 0.776142375,0 0.5,0 C0.223857625,0 0,0.223857625 0,0.5 L0,21.5 Z"></path><path d="M21,21.5 C21,21.7761424 21.2238576,22 21.5,22 C21.7761424,22 22,21.7761424 22,21.5 L22,0.5 C22,0.223857625 21.7761424,0 21.5,0 C21.2238576,0 21,0.223857625 21,0.5 L21,21.5 Z"></path><polygon points="21.5 3 21.5 2 0.5 2 0.5 3"></polygon><polygon points="21.5 6 21.5 5 0.5 5 0.5 6"></polygon><polygon points="21.5 9 21.5 8 0.5 8 0.5 9"></polygon><polygon points="21.5 12 21.5 11 0.5 11 0.5 12"></polygon><polygon points="3 11.5 4 11.5 4 2.5 3 2.5"></polygon><polygon points="6 11.5 7 11.5 7 2.5 6 2.5"></polygon><polygon points="9 11.5 10 11.5 10 2.5 9 2.5"></polygon><polygon points="12 11.5 13 11.5 13 2.5 12 2.5"></polygon><polygon points="15 11.5 16 11.5 16 2.5 15 2.5"></polygon><polygon points="18 11.5 19 11.5 19 2.5 18 2.5"></polygon></g></g></g></svg>